<svg id="Capa_1" enable-background="new 0 0 512 512" height="512" viewBox="0 0 512 512" width="512" xmlns="http://www.w3.org/2000/svg" xmlns:xlink="http://www.w3.org/1999/xlink"><linearGradient id="SVGID_1_" gradientUnits="userSpaceOnUse" x1="256" x2="256" y1="482" y2="45"><stop offset="0" stop-color="#ffbef9"/><stop offset="1" stop-color="#fff1ff"/></linearGradient><linearGradient id="SVGID_2_" gradientUnits="userSpaceOnUse" x1="256" x2="256" y1="512" y2="0"><stop offset="0" stop-color="#a93aff"/><stop offset="1" stop-color="#ff81ff"/></linearGradient><g><g><g><path d="m497 60h-104.585l-12.784-15-17.78 15h-269.436l-16.179-15-14.385 15h-46.851c-8.291 0-15 6.709-15 15v105l30 15v287h452v-287l30-15v-105c0-8.291-6.709-15-15-15z" fill="url(#SVGID_1_)"/></g></g><g><g><path d="m406 30c2.997 0 10.624 10.798 13.585 30 .714 4.638 1.415 9.353 1.415 15 0 29.033-11.279 45-15 45-8.291 0-15 6.709-15 15s6.709 15 15 15c25.664 0 45-32.241 45-75 0-5.173-.309-10.173-.851-15-3.946-35.068-21.589-60-44.149-60s-40.203 24.932-44.149 60h30.564c2.961-19.202 10.588-30 13.585-30zm-300 0c2.997 0 10.624 10.798 13.585 30 .714 4.638 1.415 9.353 1.415 15 0 29.033-11.279 45-15 45-8.291 0-15 6.709-15 15s6.709 15 15 15c25.664 0 45-32.241 45-75 0-5.173-.309-10.173-.851-15-3.946-35.068-21.589-60-44.149-60s-40.203 24.932-44.149 60h30.564c2.961-19.202 10.588-30 13.585-30zm-106 150v317c0 8.291 6.709 15 15 15h482c8.291 0 15-6.709 15-15v-317zm136 241h-30c-8.291 0-15-6.709-15-15s6.709-15 15-15h30c8.291 0 15 6.709 15 15s-6.709 15-15 15zm0-60h-30c-8.291 0-15-6.709-15-15s6.709-15 15-15h30c8.291 0 15 6.709 15 15s-6.709 15-15 15zm90 60h-30c-8.291 0-15-6.709-15-15s6.709-15 15-15h30c8.291 0 15 6.709 15 15s-6.709 15-15 15zm0-60h-30c-8.291 0-15-6.709-15-15s6.709-15 15-15h30c8.291 0 15 6.709 15 15s-6.709 15-15 15zm0-60h-30c-8.291 0-15-6.709-15-15s6.709-15 15-15h30c8.291 0 15 6.709 15 15s-6.709 15-15 15zm90 120h-30c-8.291 0-15-6.709-15-15s6.709-15 15-15h30c8.291 0 15 6.709 15 15s-6.709 15-15 15zm0-60h-30c-8.291 0-15-6.709-15-15s6.709-15 15-15h30c8.291 0 15 6.709 15 15s-6.709 15-15 15zm0-60h-30c-8.291 0-15-6.709-15-15s6.709-15 15-15h30c8.291 0 15 6.709 15 15s-6.709 15-15 15zm90 120h-30c-8.291 0-15-6.709-15-15s6.709-15 15-15h30c8.291 0 15 6.709 15 15s-6.709 15-15 15zm0-60h-30c-8.291 0-15-6.709-15-15s6.709-15 15-15h30c8.291 0 15 6.709 15 15s-6.709 15-15 15zm0-60h-30c-8.291 0-15-6.709-15-15s6.709-15 15-15h30c8.291 0 15 6.709 15 15s-6.709 15-15 15z" fill="url(#SVGID_2_)"/></g></g></g></svg>