<svg width="717" height="432" fill="none" xmlns="http://www.w3.org/2000/svg"><g filter="url(#filter0_ddddddi)"><path d="M233.692 171.091c.322-1.412.482-2.178.482-2.295 0-1.648-.482-2.944-1.445-3.885-.856-.942-1.98-1.413-3.371-1.413-2.355 0-3.854 1.177-4.496 3.532l-21.032 70.108-20.069-52.449c-.856-2.237-2.354-3.355-4.495-3.355-2.248 0-3.746 1.118-4.495 3.355l-19.106 52.802-21.353-70.461c-.321-1.06-.91-1.884-1.766-2.473-.749-.706-1.606-1.059-2.569-1.059-1.391 0-2.569.53-3.532 1.589-.963.942-1.445 2.178-1.445 3.709 0 .824.161 1.589.482 2.295l25.367 81.235a5.382 5.382 0 001.766 2.648c.963.589 1.98.825 3.05.707.856 0 1.659-.294 2.408-.883.857-.707 1.499-1.531 1.927-2.472l18.784-54.392 21.032 54.392c.429 1.059 1.017 1.883 1.766 2.472.75.589 1.606.883 2.569.883.964.118 1.873-.118 2.73-.707m63.948-6.138v-42.164c0-5.416.852-9.974 3.314-15.272 2.569-5.298 4.101-8.988 7.954-12.284 3.96-3.414 5.32-5.552 9.28-5.552 1.392 0 2.14-.589 3.638 0 1.606.588 2.676.883 3.211.883 1.177 0 2.194-.471 3.051-1.413.856-1.06 1.284-2.413 1.284-4.062 0-1.883-.856-3.296-2.569-4.238-1.712-.942-3.639-1.413-5.78-1.413-6.743.118-12.63 2.414-17.66 6.888-4.924 4.356-8.616 9.889-11.078 16.6v-15.541c0-1.53-.482-2.767-1.445-3.708-.856-1.06-1.98-1.59-3.372-1.59-1.391 0-2.568.53-3.532 1.59-.856.941-1.284 2.178-1.284 3.708v79.115c0 1.53.428 2.826 1.284 3.885.964.942 2.141 1.413 3.532 1.413m68.036-1.413c.963-1.059 1.445-2.355 1.445-3.885v-81.234c0-1.531-.482-2.767-1.445-3.709-.856-1.059-1.98-1.589-3.372-1.589-1.391 0-2.568.53-3.532 1.589-.856.942-1.284 2.178-1.284 3.709v81.234c0 1.53.428 2.826 1.284 3.885m58.58 35.143c4.174 1.059 8.134 1.589 11.881 1.589 7.813 0 14.717-1.707 20.711-5.121 6.1-3.414 10.863-8.418 14.288-15.011 3.533-6.475 5.299-14.304 5.299-23.487v-76.466c0-1.648-.482-2.943-1.445-3.885-.857-1.06-1.98-1.59-3.372-1.59-1.391 0-2.569.53-3.532 1.59-.856 1.059-1.284 2.354-1.284 3.885v11.302c-2.676-5.18-6.851-9.595-12.523-13.245-5.566-3.767-11.72-5.651-18.464-5.651m-27.133 116.907c-.749-.824-1.123-1.766-1.123-2.826 0-1.177.481-2.119 1.445-2.825.428-.354.963-.53 1.605-.53s1.873.412 3.693 1.236l3.371 1.589c6.636 2.826 12.844 4.239 18.624 4.239 9.526 0 16.965-3.002 22.317-9.007 5.458-5.886 8.188-13.892 8.188-24.017v-10.949c-2.676 6.358-6.904 11.361-12.684 15.011-5.78 3.532-11.827 5.298-18.142 5.298-7.385 0-14.075-2.002-20.069-6.004m-19.105-41.147c0-8.83 1.712-16.836 5.137-24.017m34.84-13.068c5.887 0 11.131 1.589 15.734 4.768 4.709 3.061 8.348 7.417 10.917 13.068 2.676 5.651 4.014 12.067 4.014 19.249 0 7.181-1.338 13.656-4.014 19.425-2.569 5.651-6.208 10.066-10.917 13.245-4.603 3.061-9.847 4.591-15.734 4.591-5.78 0-11.025-1.589-15.734-4.768-4.603-3.296-8.242-7.77-10.918-13.421-2.568-5.651-3.853-12.008-3.853-19.072 0-6.946 1.285-13.245 3.853-18.896m160.89 9.006c0-10.478-2.354-19.013-7.064-25.606-4.709-6.711-11.88-10.066-21.513-10.066-5.352 0-10.597 1.648-15.734 4.945m42.867 84.589c-.857.942-1.981 1.413-3.372 1.413-1.391 0-2.569-.471-3.532-1.413-.856-1.059-1.285-2.355-1.285-3.885v-49.977c0-7.652-1.659-13.833-4.977-18.542-3.318-4.827-8.509-7.241-15.573-7.241-4.495 0-8.777 1.178-12.844 3.532-3.96 2.355-7.171 5.534-9.633 9.536-2.462 3.886-3.693 8.124-3.693 12.715v49.977c0 1.53-.481 2.826-1.445 3.885-.856.942-1.98 1.413-3.371 1.413-1.392 0-2.569-.471-3.532-1.413-.856-1.059-1.285-2.355-1.285-3.885V130.298c0-1.531.429-2.767 1.285-3.709.963-1.059 2.14-1.589 3.532-1.589 1.391 0 2.515.53 3.371 1.589.964.942 1.445 2.178 1.445 3.709m97.673 45.385h16.055c1.284 0 2.354-.412 3.211-1.236.856-.942 1.284-2.119 1.284-3.532 0-1.295-.482-2.472-1.445-3.532-.856-1.06-1.873-1.589-3.05-1.589H568.45v-19.603c0-1.53-.482-2.766-1.445-3.708-.857-1.06-1.981-1.589-3.372-1.589-1.391 0-2.569.529-3.532 1.589-.856.942-1.284 2.178-1.284 3.708v19.603h-11.721c-1.284 0-2.408.471-3.371 1.412-.856.942-1.285 2.12-1.285 3.532 0 1.413.429 2.59 1.285 3.532.963.942 2.087 1.413 3.371 1.413h11.721v59.689c0 6.476 1.016 11.185 3.05 14.128 2.141 2.943 4.335 4.709 6.583 5.298 2.247.589 4.816.883 7.706.883 2.355 0 4.388-.53 6.101-1.59 1.712-1.177 2.569-2.59 2.569-4.238 0-1.177-.375-2.178-1.124-3.002-.642-.942-1.445-1.413-2.408-1.413-.536 0-1.285.177-2.248.53-.963.236-1.766.353-2.408.353-2.462 0-4.442-.765-5.941-2.295m-245.376-92.007c-2.14 0-3.799-.53-4.977-1.589-1.177-1.178-1.766-2.826-1.766-4.945v-1.766c0-2.119.589-3.708 1.766-4.768 1.285-1.177 2.997-1.766 5.138-1.766 4.281 0 6.422 2.178 6.422 6.534v1.766c0 2.119-.589 3.767-1.766 4.945-1.07 1.059-2.676 1.589-4.817 1.589z" stroke="#98A1F3" stroke-opacity=".73" stroke-width="5"/></g><defs><filter id="filter0_ddddddi" x=".5" y=".5" width="729" height="431" filterUnits="userSpaceOnUse" color-interpolation-filters="sRGB"><feFlood flood-opacity="0" result="BackgroundImageFix"/><feColorMatrix in="SourceAlpha" values="0 0 0 0 0 0 0 0 0 0 0 0 0 0 0 0 0 0 127 0"/><feOffset dx="-2" dy="-12"/><feGaussianBlur stdDeviation="10"/><feColorMatrix values="0 0 0 0 0.743832 0 0 0 0 0.500955 0 0 0 0 0.829167 0 0 0 0.73 0"/><feBlend in2="BackgroundImageFix" result="effect1_dropShadow"/><feColorMatrix in="SourceAlpha" values="0 0 0 0 0 0 0 0 0 0 0 0 0 0 0 0 0 0 127 0"/><feOffset dx="8" dy="-4"/><feGaussianBlur stdDeviation="3"/><feColorMatrix values="0 0 0 0 0.596354 0 0 0 0 0.632135 0 0 0 0 0.954167 0 0 0 0.31 0"/><feBlend in2="effect1_dropShadow" result="effect2_dropShadow"/><feColorMatrix in="SourceAlpha" values="0 0 0 0 0 0 0 0 0 0 0 0 0 0 0 0 0 0 127 0"/><feOffset dx="2" dy="-3"/><feGaussianBlur stdDeviation="4"/><feColorMatrix values="0 0 0 0 0.598889 0 0 0 0 0.632333 0 0 0 0 0.933333 0 0 0 0.64 0"/><feBlend in2="effect2_dropShadow" result="effect3_dropShadow"/><feColorMatrix in="SourceAlpha" values="0 0 0 0 0 0 0 0 0 0 0 0 0 0 0 0 0 0 127 0"/><feOffset dx="-3" dy="10"/><feGaussianBlur stdDeviation="5"/><feColorMatrix values="0 0 0 0 0.596354 0 0 0 0 0.632135 0 0 0 0 0.954167 0 0 0 0.32 0"/><feBlend in2="effect3_dropShadow" result="effect4_dropShadow"/><feColorMatrix in="SourceAlpha" values="0 0 0 0 0 0 0 0 0 0 0 0 0 0 0 0 0 0 127 0"/><feOffset dx="8" dy="8"/><feGaussianBlur stdDeviation="65"/><feColorMatrix values="0 0 0 0 0.596354 0 0 0 0 0.632135 0 0 0 0 0.954167 0 0 0 0.57 0"/><feBlend in2="effect4_dropShadow" result="effect5_dropShadow"/><feColorMatrix in="SourceAlpha" values="0 0 0 0 0 0 0 0 0 0 0 0 0 0 0 0 0 0 127 0"/><feOffset dx="8" dy="8"/><feGaussianBlur stdDeviation="52"/><feColorMatrix values="0 0 0 0 0.31075 0 0 0 0 0.06875 0 0 0 0 0.825 0 0 0 0.7 0"/><feBlend in2="effect5_dropShadow" result="effect6_dropShadow"/><feBlend in="SourceGraphic" in2="effect6_dropShadow" result="shape"/><feColorMatrix in="SourceAlpha" values="0 0 0 0 0 0 0 0 0 0 0 0 0 0 0 0 0 0 127 0" result="hardAlpha"/><feOffset dx="-2" dy="-2"/><feGaussianBlur stdDeviation="10"/><feComposite in2="hardAlpha" operator="arithmetic" k2="-1" k3="1"/><feColorMatrix values="0 0 0 0 0.596078 0 0 0 0 0.631373 0 0 0 0 0.952941 0 0 0 0.73 0"/><feBlend in2="shape" result="effect7_innerShadow"/></filter></defs></svg>