<svg width="717" height="432" viewBox="0 0 717 432" fill="none" xmlns="http://www.w3.org/2000/svg">
<g filter="url(#filter0_ddddddi)">
<path d="M233.692 171.091C234.014 169.679 234.174 168.913 234.174 168.796C234.174 167.148 233.692 165.852 232.729 164.911C231.873 163.969 230.749 163.498 229.358 163.498C227.003 163.498 225.504 164.675 224.862 167.03L203.83 237.138L183.761 184.689C182.905 182.452 181.407 181.334 179.266 181.334C177.018 181.334 175.52 182.452 174.771 184.689L155.665 237.491L134.312 167.03C133.991 165.97 133.402 165.146 132.546 164.557C131.797 163.851 130.94 163.498 129.977 163.498C128.586 163.498 127.408 164.028 126.445 165.087C125.482 166.029 125 167.265 125 168.796C125 169.62 125.161 170.385 125.482 171.091L150.849 252.326C151.17 253.385 151.758 254.268 152.615 254.974C153.578 255.563 154.595 255.799 155.665 255.681C156.521 255.681 157.324 255.387 158.073 254.798C158.93 254.091 159.572 253.267 160 252.326L178.784 197.934L199.816 252.326C200.245 253.385 200.833 254.209 201.582 254.798C202.332 255.387 203.188 255.681 204.151 255.681C205.115 255.799 206.024 255.563 206.881 254.974M270.829 248.836V206.672C270.829 201.256 271.681 196.698 274.143 191.4C276.712 186.102 278.244 182.412 282.097 179.116C286.057 175.702 287.417 173.564 291.377 173.564C292.769 173.564 293.517 172.975 295.015 173.564C296.621 174.152 297.691 174.447 298.226 174.447C299.403 174.447 300.42 173.976 301.277 173.034C302.133 171.974 302.561 170.621 302.561 168.972C302.561 167.089 301.705 165.676 299.992 164.734C298.28 163.792 296.353 163.321 294.212 163.321C287.469 163.439 281.582 165.735 276.552 170.209C271.628 174.565 267.936 180.098 265.474 186.809V171.268C265.474 169.738 264.992 168.501 264.029 167.56C263.173 166.5 262.049 165.97 260.657 165.97C259.266 165.97 258.089 166.5 257.125 167.56C256.269 168.501 255.841 169.738 255.841 171.268V250.383C255.841 251.913 256.269 253.209 257.125 254.268C258.089 255.21 259.266 255.681 260.657 255.681M328.693 254.268C329.656 253.209 330.138 251.913 330.138 250.383V169.149C330.138 167.618 329.656 166.382 328.693 165.44C327.837 164.381 326.713 163.851 325.321 163.851C323.93 163.851 322.753 164.381 321.789 165.44C320.933 166.382 320.505 167.618 320.505 169.149V250.383C320.505 251.913 320.933 253.209 321.789 254.268M380.369 289.411C384.543 290.47 388.503 291 392.25 291C400.063 291 406.967 289.293 412.961 285.879C419.061 282.465 423.824 277.461 427.249 270.868C430.782 264.393 432.548 256.564 432.548 247.381V170.915C432.548 169.267 432.066 167.972 431.103 167.03C430.246 165.97 429.123 165.44 427.731 165.44C426.34 165.44 425.162 165.97 424.199 167.03C423.343 168.089 422.915 169.384 422.915 170.915V182.217C420.239 177.037 416.064 172.622 410.392 168.972C404.826 165.205 398.672 163.321 391.928 163.321M364.795 280.228C364.046 279.404 363.672 278.462 363.672 277.402C363.672 276.225 364.153 275.283 365.117 274.577C365.545 274.223 366.08 274.047 366.722 274.047C367.364 274.047 368.595 274.459 370.415 275.283L373.786 276.872C380.422 279.698 386.63 281.111 392.41 281.111C401.936 281.111 409.375 278.109 414.727 272.104C420.185 266.218 422.915 258.212 422.915 248.087V237.138C420.239 243.496 416.011 248.499 410.231 252.149C404.451 255.681 398.404 257.447 392.089 257.447C384.704 257.447 378.014 255.445 372.02 251.443M352.915 210.296C352.915 201.466 354.627 193.46 358.052 186.279M392.892 173.211C398.779 173.211 404.023 174.8 408.626 177.979C413.335 181.04 416.974 185.396 419.543 191.047C422.219 196.698 423.557 203.114 423.557 210.296C423.557 217.477 422.219 223.952 419.543 229.721C416.974 235.372 413.335 239.787 408.626 242.966C404.023 246.027 398.779 247.557 392.892 247.557C387.112 247.557 381.867 245.968 377.158 242.789C372.555 239.493 368.916 235.019 366.24 229.368C363.672 223.717 362.387 217.36 362.387 210.296C362.387 203.35 363.672 197.051 366.24 191.4M527.13 200.406C527.13 189.928 524.776 181.393 520.066 174.8C515.357 168.089 508.186 164.734 498.553 164.734C493.201 164.734 487.956 166.382 482.819 169.679M525.686 254.268C524.829 255.21 523.705 255.681 522.314 255.681C520.923 255.681 519.745 255.21 518.782 254.268C517.926 253.209 517.497 251.913 517.497 250.383V200.406C517.497 192.754 515.838 186.573 512.52 181.864C509.202 177.037 504.011 174.623 496.947 174.623C492.452 174.623 488.17 175.801 484.103 178.155C480.143 180.51 476.932 183.689 474.47 187.691C472.008 191.577 470.777 195.815 470.777 200.406V250.383C470.777 251.913 470.296 253.209 469.332 254.268C468.476 255.21 467.352 255.681 465.961 255.681C464.569 255.681 463.392 255.21 462.429 254.268C461.573 253.209 461.144 251.913 461.144 250.383V130.298C461.144 128.767 461.573 127.531 462.429 126.589C463.392 125.53 464.569 125 465.961 125C467.352 125 468.476 125.53 469.332 126.589C470.296 127.531 470.777 128.767 470.777 130.298M568.45 175.683H584.505C585.789 175.683 586.859 175.271 587.716 174.447C588.572 173.505 589 172.328 589 170.915C589 169.62 588.518 168.443 587.555 167.383C586.699 166.323 585.682 165.794 584.505 165.794H568.45V146.191C568.45 144.661 567.968 143.425 567.005 142.483C566.148 141.423 565.024 140.894 563.633 140.894C562.242 140.894 561.064 141.423 560.101 142.483C559.245 143.425 558.817 144.661 558.817 146.191V165.794H547.096C545.812 165.794 544.688 166.265 543.725 167.206C542.869 168.148 542.44 169.326 542.44 170.738C542.44 172.151 542.869 173.328 543.725 174.27C544.688 175.212 545.812 175.683 547.096 175.683H558.817V235.372C558.817 241.848 559.833 246.557 561.867 249.5C564.008 252.443 566.202 254.209 568.45 254.798C570.697 255.387 573.266 255.681 576.156 255.681C578.511 255.681 580.544 255.151 582.257 254.091C583.969 252.914 584.826 251.501 584.826 249.853C584.826 248.676 584.451 247.675 583.702 246.851C583.06 245.909 582.257 245.438 581.294 245.438C580.758 245.438 580.009 245.615 579.046 245.968C578.083 246.204 577.28 246.321 576.638 246.321C574.176 246.321 572.196 245.556 570.697 244.026M325.321 152.019C323.181 152.019 321.522 151.489 320.344 150.43C319.167 149.252 318.578 147.604 318.578 145.485V143.719C318.578 141.6 319.167 140.011 320.344 138.951C321.629 137.774 323.341 137.185 325.482 137.185C329.763 137.185 331.904 139.363 331.904 143.719V145.485C331.904 147.604 331.315 149.252 330.138 150.43C329.068 151.489 327.462 152.019 325.321 152.019Z" stroke="#98A1F3" stroke-opacity="0.73" stroke-width="5"/>
</g>
<defs>
<filter id="filter0_ddddddi" x="0.5" y="0.5" width="729" height="431" filterUnits="userSpaceOnUse" color-interpolation-filters="sRGB">
<feFlood flood-opacity="0" result="BackgroundImageFix"/>
<feColorMatrix in="SourceAlpha" type="matrix" values="0 0 0 0 0 0 0 0 0 0 0 0 0 0 0 0 0 0 127 0"/>
<feOffset dx="-2" dy="-12"/>
<feGaussianBlur stdDeviation="10"/>
<feColorMatrix type="matrix" values="0 0 0 0 0.743832 0 0 0 0 0.500955 0 0 0 0 0.829167 0 0 0 0.73 0"/>
<feBlend mode="normal" in2="BackgroundImageFix" result="effect1_dropShadow"/>
<feColorMatrix in="SourceAlpha" type="matrix" values="0 0 0 0 0 0 0 0 0 0 0 0 0 0 0 0 0 0 127 0"/>
<feOffset dx="8" dy="-4"/>
<feGaussianBlur stdDeviation="3"/>
<feColorMatrix type="matrix" values="0 0 0 0 0.596354 0 0 0 0 0.632135 0 0 0 0 0.954167 0 0 0 0.31 0"/>
<feBlend mode="normal" in2="effect1_dropShadow" result="effect2_dropShadow"/>
<feColorMatrix in="SourceAlpha" type="matrix" values="0 0 0 0 0 0 0 0 0 0 0 0 0 0 0 0 0 0 127 0"/>
<feOffset dx="2" dy="-3"/>
<feGaussianBlur stdDeviation="4"/>
<feColorMatrix type="matrix" values="0 0 0 0 0.598889 0 0 0 0 0.632333 0 0 0 0 0.933333 0 0 0 0.64 0"/>
<feBlend mode="normal" in2="effect2_dropShadow" result="effect3_dropShadow"/>
<feColorMatrix in="SourceAlpha" type="matrix" values="0 0 0 0 0 0 0 0 0 0 0 0 0 0 0 0 0 0 127 0"/>
<feOffset dx="-3" dy="10"/>
<feGaussianBlur stdDeviation="5"/>
<feColorMatrix type="matrix" values="0 0 0 0 0.596354 0 0 0 0 0.632135 0 0 0 0 0.954167 0 0 0 0.32 0"/>
<feBlend mode="normal" in2="effect3_dropShadow" result="effect4_dropShadow"/>
<feColorMatrix in="SourceAlpha" type="matrix" values="0 0 0 0 0 0 0 0 0 0 0 0 0 0 0 0 0 0 127 0"/>
<feOffset dx="8" dy="8"/>
<feGaussianBlur stdDeviation="65"/>
<feColorMatrix type="matrix" values="0 0 0 0 0.596354 0 0 0 0 0.632135 0 0 0 0 0.954167 0 0 0 0.57 0"/>
<feBlend mode="normal" in2="effect4_dropShadow" result="effect5_dropShadow"/>
<feColorMatrix in="SourceAlpha" type="matrix" values="0 0 0 0 0 0 0 0 0 0 0 0 0 0 0 0 0 0 127 0"/>
<feOffset dx="8" dy="8"/>
<feGaussianBlur stdDeviation="52"/>
<feColorMatrix type="matrix" values="0 0 0 0 0.31075 0 0 0 0 0.06875 0 0 0 0 0.825 0 0 0 0.7 0"/>
<feBlend mode="normal" in2="effect5_dropShadow" result="effect6_dropShadow"/>
<feBlend mode="normal" in="SourceGraphic" in2="effect6_dropShadow" result="shape"/>
<feColorMatrix in="SourceAlpha" type="matrix" values="0 0 0 0 0 0 0 0 0 0 0 0 0 0 0 0 0 0 127 0" result="hardAlpha"/>
<feOffset dx="-2" dy="-2"/>
<feGaussianBlur stdDeviation="10"/>
<feComposite in2="hardAlpha" operator="arithmetic" k2="-1" k3="1"/>
<feColorMatrix type="matrix" values="0 0 0 0 0.596078 0 0 0 0 0.631373 0 0 0 0 0.952941 0 0 0 0.73 0"/>
<feBlend mode="normal" in2="shape" result="effect7_innerShadow"/>
</filter>
</defs>
</svg>
